<svg xmlns="http://www.w3.org/2000/svg" width="200" height="40" viewBox="0,0,200,40"><path d="M2 11 C109 6,85 5,197 2" stroke="#222" fill="none"/><path fill="#222" d="M164.12 35.34L164.11 35.33L164.20 35.42Q160.03 35.56 159.04 33.23L159.11 33.30L159.06 33.25Q159.81 32.29 161.37 30.50L161.34 30.47L161.44 30.57Q161.88 32.53 164.89 32.65L164.85 32.61L164.95 32.71Q168.22 32.66 169.85 31.33L169.95 31.43L169.86 31.34Q171.42 29.90 171.35 27.19L171.34 27.18L171.33 27.17Q171.22 22.15 166.42 22.38L166.40 22.36L166.42 22.38Q163.53 22.46 161.78 23.72L161.69 23.62L161.48 23.56L161.20 23.36L161.18 23.35Q161.51 20.17 161.39 17.43L161.48 17.51L161.47 17.50Q161.38 14.90 161.04 11.59L161.05 11.60L160.92 11.48Q164.68 12.53 168.49 12.42L168.39 12.32L168.54 12.47Q172.20 12.25 175.78 10.99L175.79 11.00L175.28 12.59L175.27 12.58Q174.94 13.31 174.75 14.15L174.77 14.17L174.71 14.11Q171.73 15.27 167.84 15.27L167.85 15.29L167.87 15.30Q166.35 15.23 164.87 15.08L164.80 15.01L164.86 15.07Q164.85 15.82 164.50 20.27L164.51 20.28L164.43 20.19Q165.21 19.69 167.27 19.53L167.39 19.65L167.26 19.53Q171.02 19.78 172.46 21.45L172.44 21.44L172.41 21.40Q173.96 23.10 174.23 26.95L174.08 26.80L174.04 26.76Q174.45 31.09 173.23 33.11L173.24 33.12L173.27 33.15Q171.20 35.00 167.89 35.23L167.76 35.10L167.81 35.15Q166.87 35.27 164.20 35.43ZM170.18 37.63L170.21 37.67L170.21 37.66Q173.56 37.67 175.47 36.57L175.61 36.71L175.59 36.69Q176.44 35.02 176.44 32.93L176.48 32.97L176.52 33.01Q176.62 30.03 175.67 25.92L175.62 25.87L175.55 25.80Q175.11 23.98 173.89 22.57L174.00 22.69L173.95 22.67L173.80 22.45L173.45 22.25L173.52 22.32Q173.07 21.45 172.42 20.77L172.41 20.76L172.52 20.90L172.56 20.94Q171.04 19.27 167.35 19.27L167.31 19.24L166.96 19.15L167.01 19.20Q167.14 18.69 167.33 17.58L167.28 17.52L167.33 17.58Q172.36 17.73 176.39 16.10L176.21 15.92L176.27 15.97Q176.70 14.57 177.65 11.76L177.62 11.73L175.61 12.76L175.66 12.81Q175.93 11.56 176.43 10.42L176.45 10.44L176.53 10.52Q172.64 11.92 168.52 12.00L168.44 11.91L168.49 11.96Q164.43 12.13 160.47 11.02L160.35 10.90L160.36 10.91Q161.13 15.41 161.13 19.83L161.08 19.78L161.03 19.73Q161.02 21.62 160.91 23.53L161.02 23.64L160.92 23.54Q161.24 23.79 161.81 24.09L161.83 24.10L161.87 24.15Q162.26 23.96 162.90 23.62L162.90 23.61L162.82 23.54Q162.77 24.28 162.54 25.81L162.63 25.90L162.56 25.83Q163.03 26.07 163.45 26.30L163.37 26.22L163.34 26.19Q166.12 24.44 167.99 24.44L167.97 24.42L167.99 24.44Q169.45 24.57 170.63 25.22L170.60 25.19L170.64 25.23Q170.86 26.13 170.90 27.09L170.85 27.03L170.97 27.15Q170.93 29.63 169.91 30.74L169.94 30.77L170.06 30.89Q168.56 31.98 166.32 32.21L166.40 32.30L166.39 32.29Q165.41 32.33 164.72 32.25L164.73 32.26L164.68 32.21Q163.83 32.08 163.07 31.74L163.10 31.78L163.10 31.58L162.94 31.65L162.97 31.68Q162.12 31.13 161.58 29.80L161.70 29.92L161.67 29.89Q160.32 31.28 158.65 33.41L158.69 33.46L158.58 33.34Q159.00 34.11 159.84 35.06L159.87 35.09L159.80 35.02Q160.90 36.88 163.71 37.37L163.61 37.27L163.73 37.39Q164.84 37.55 170.21 37.67Z"/><path fill="#333" d="M139.36 25.36L139.37 25.36L139.41 25.41Q136.03 31.85 132.61 35.81L132.42 35.62L132.52 35.73Q130.71 36.20 128.27 37.07L128.13 36.93L128.29 37.09Q133.15 31.44 137.91 23.03L137.88 22.99L137.97 23.09Q133.22 15.98 127.24 9.58L127.36 9.70L127.26 9.60Q130.15 10.77 132.43 11.27L132.48 11.32L132.54 11.38Q137.09 16.50 139.53 20.46L139.51 20.44L139.60 20.53Q142.05 16.05 145.97 11.64L146.05 11.72L146.05 11.72Q147.66 11.42 150.85 10.66L150.76 10.56L150.83 10.64Q144.71 17.04 141.25 22.98L141.22 22.95L141.21 22.94Q146.46 31.70 150.84 36.26L150.90 36.33L150.80 36.22Q148.19 35.40 146.10 35.18L146.18 35.26L146.07 35.15Q143.38 32.27 139.46 25.46ZM146.16 35.66L145.98 35.47L146.11 35.61Q146.34 35.57 146.80 35.69L146.77 35.66L146.79 35.68Q147.73 36.58 149.25 38.18L149.25 38.18L149.08 38.00Q152.48 38.86 155.53 40.23L155.55 40.25L155.47 40.17Q148.34 33.58 143.24 24.82L143.36 24.94L143.20 24.78Q147.01 18.19 152.91 11.34L152.92 11.36L153.00 11.43Q151.48 12.00 149.31 12.54L149.37 12.60L149.40 12.63Q150.22 11.66 151.97 9.87L152.04 9.94L152.06 9.96Q149.57 10.74 145.87 11.31L145.96 11.40L145.90 11.33Q142.48 15.15 139.89 19.45L139.89 19.45L139.83 19.39Q139.04 17.91 137.86 16.43L137.77 16.34L135.49 13.41L135.03 13.33L135.02 13.33Q134.93 13.39 134.70 13.31L134.72 13.33L134.78 13.39Q133.95 12.41 132.47 10.85L132.61 10.99L132.50 10.88Q128.69 10.00 126.10 8.63L126.20 8.74L126.20 8.74Q132.97 16.03 137.54 23.07L137.43 22.97L137.52 23.06Q132.96 31.17 127.21 37.76L127.23 37.78L127.33 37.88Q128.58 37.15 130.71 36.58L130.68 36.55L129.34 37.95L129.43 38.04Q129.40 38.01 128.06 39.34L127.97 39.24L128.01 39.28Q131.15 38.35 134.31 37.86L134.33 37.88L134.33 37.88Q138.16 33.18 140.75 28.42L140.81 28.48L140.77 28.44Q143.38 32.73 146.08 35.58Z"/><path d="M13 26 C83 11,118 33,189 5" stroke="#111" fill="none"/><path fill="#333" d="M29.11 22.08L29.22 22.19L29.12 22.09Q29.94 22.11 31.34 21.95L31.44 22.05L31.48 22.09Q31.36 22.66 31.36 23.31L31.31 23.26L31.39 24.59L31.32 24.52Q30.50 24.54 29.67 24.62L29.69 24.64L29.79 24.74Q28.81 24.63 27.97 24.60L28.10 24.73L27.93 24.56Q25.20 30.85 21.77 35.45L21.68 35.36L21.68 35.36Q19.32 36.16 18.02 36.76L17.85 36.59L17.85 36.60Q22.04 30.96 25.09 24.68L25.16 24.75L22.48 24.70L22.45 24.67Q22.53 23.41 22.41 22.08L22.39 22.06L22.31 21.98Q24.27 22.19 26.33 22.19L26.33 22.19L28.28 18.55L28.15 18.42Q29.14 16.51 30.36 14.92L30.47 15.03L30.41 14.96Q28.87 15.14 27.27 15.14L27.19 15.05L27.25 15.12Q21.20 15.16 17.43 12.95L17.43 12.95L16.74 11.19L16.84 11.30Q16.31 10.27 15.93 9.39L16.01 9.48L16.12 9.59Q20.27 12.02 25.98 12.25L26.06 12.33L26.07 12.34Q31.19 12.55 36.33 10.57L36.27 10.51L36.45 10.69Q36.21 11.06 35.71 11.93L35.74 11.96L35.69 11.91Q31.97 16.56 29.11 22.08ZM37.35 13.34L37.22 13.21L38.20 11.19L38.33 11.31Q37.26 11.69 35.58 12.41L35.71 12.54L35.77 12.10L35.79 12.12Q35.91 11.98 36.02 11.86L36.00 11.84L36.11 11.95Q36.48 11.26 37.21 9.93L37.23 9.95L37.21 9.93Q31.77 12.10 26.02 11.87L26.15 12.01L26.11 11.96Q20.12 11.72 15.36 8.75L15.34 8.73L15.27 8.66Q16.37 10.60 17.21 13.26L17.25 13.31L17.11 13.16Q18.31 13.90 19.11 14.21L19.10 14.20L19.14 14.24Q19.20 14.49 19.66 16.36L19.72 16.42L19.65 16.35Q22.82 17.62 28.34 17.46L28.45 17.57L28.33 17.46Q28.00 18.00 26.02 21.77L26.16 21.91L26.16 21.91Q23.93 21.74 21.95 21.55L21.99 21.59L22.10 21.70Q22.12 22.48 22.12 23.35L22.09 23.32L22.05 24.99L23.74 25.01L23.85 26.53L23.84 26.52Q19.85 33.84 17.07 37.42L17.16 37.50L17.06 37.40Q18.77 36.75 20.41 36.26L20.25 36.10L20.37 36.22Q19.70 37.15 18.33 38.86L18.35 38.88L18.36 38.89Q21.53 37.79 23.96 37.57L23.86 37.46L23.94 37.55Q26.80 33.70 29.92 26.93L29.87 26.87L33.43 27.20L33.37 27.14Q33.24 26.17 33.24 25.26L33.37 25.39L33.31 23.54L33.27 23.50Q33.01 23.51 32.46 23.55L32.53 23.61L32.54 23.63Q31.84 23.52 31.57 23.52L31.73 23.67L31.69 23.64Q31.73 23.56 31.77 23.41L31.62 23.26L31.76 23.14L31.76 23.13Q34.16 17.88 37.25 13.24Z"/><path fill="#222" d="M106.24 27.89L106.31 27.96L106.36 28.01Q109.46 27.64 112.66 27.76L112.57 27.67L112.63 27.73Q112.48 25.07 112.48 22.67L112.65 22.84L112.52 22.71Q112.58 20.30 112.77 17.75L112.80 17.77L112.82 17.79Q111.49 19.40 106.28 27.92ZM116.15 35.25L116.20 35.30L116.20 35.30Q114.54 35.00 112.75 34.93L112.68 34.86L112.84 35.02Q112.46 32.47 112.35 30.00L112.39 30.04L112.39 30.04Q107.03 29.82 102.31 31.23L102.31 31.23L102.31 31.23Q102.47 30.78 102.66 29.79L102.60 29.73L102.74 29.87Q104.51 26.69 108.09 20.41L107.97 20.29L108.13 20.45Q110.99 15.55 114.42 11.66L114.41 11.66L114.36 11.60Q115.17 11.35 116.84 11.08L116.91 11.15L116.96 11.20Q115.03 17.60 115.03 24.64L115.05 24.67L115.06 24.68Q115.12 26.22 115.19 27.70L115.18 27.69L116.40 27.73L116.38 27.71Q116.93 27.69 117.54 27.81L117.66 27.93L117.59 27.85Q117.81 28.95 118.07 30.89L118.06 30.87L118.05 30.86Q116.79 30.56 115.31 30.37L115.39 30.45L115.39 30.45Q115.50 32.35 116.18 35.28ZM117.89 27.51L117.98 27.60L117.87 27.49Q117.61 27.34 117.42 27.34L117.52 27.44L117.21 27.51L117.11 27.41Q116.96 25.89 116.96 24.48L117.00 24.53L116.91 24.44Q116.98 18.11 119.04 12.09L119.00 12.05L118.97 12.03Q118.27 12.36 116.83 12.74L116.76 12.67L116.95 12.86Q117.15 12.08 117.61 10.67L117.51 10.57L117.57 10.63Q116.24 10.97 114.19 11.20L114.22 11.24L114.26 11.27Q110.35 15.63 105.13 24.99L105.05 24.91L107.24 21.35L107.20 21.31Q106.75 22.31 106.49 22.88L106.51 22.91L101.92 31.79L101.94 31.82Q102.69 31.76 103.83 31.38L103.76 31.31L103.59 31.52L103.55 31.47Q103.45 32.18 103.14 33.43L103.17 33.46L103.18 33.46Q107.41 32.25 112.24 32.44L112.25 32.45L112.09 32.29Q112.16 33.27 112.35 35.25L112.36 35.26L112.30 35.21Q113.52 35.36 114.59 35.47L114.50 35.39L114.44 35.32Q114.65 36.07 114.92 37.44L114.94 37.46L114.87 37.39Q116.87 37.71 119.87 38.63L119.91 38.66L119.78 38.53Q118.83 36.45 117.92 33.17L117.91 33.16L119.48 33.74L119.44 33.70Q120.14 33.94 120.82 34.28L120.85 34.31L120.87 34.33Q119.88 31.63 119.73 29.96L119.77 30.00L119.81 30.03Q119.25 29.89 118.11 29.67L118.13 29.69L118.08 29.63Q117.94 28.44 117.94 27.56ZM109.93 27.39L109.95 27.41L109.87 27.33Q110.66 26.07 112.23 23.52L112.27 23.56L112.14 23.43Q112.29 24.54 112.25 25.49L112.07 25.31L112.18 25.42Q112.08 26.31 112.12 27.26L112.20 27.34L112.29 27.43Q111.61 27.28 111.04 27.28L111.08 27.32L111.15 27.39Q110.53 27.38 109.92 27.38Z"/><path fill="#333" d="M56.10 27.16L46.88 17.18L46.93 17.23Q47.78 20.93 47.78 24.66L47.74 24.63L47.75 24.63Q47.65 30.51 45.59 36.07L45.55 36.03L45.71 36.18Q44.51 36.32 42.26 37.08L42.40 37.22L42.30 37.12Q45.15 31.36 45.15 24.66L45.18 24.69L45.12 24.64Q45.19 16.06 40.69 8.63L40.71 8.65L40.60 8.54Q40.98 8.66 41.67 9.08L41.81 9.22L41.83 9.24Q53.90 20.43 61.74 29.68L61.68 29.62L61.68 29.62Q61.38 27.19 61.38 24.75L61.48 24.85L61.30 24.67Q61.37 17.51 63.88 11.30L63.84 11.26L63.92 11.34Q66.15 10.71 67.75 10.03L67.73 10.02L67.81 10.09Q64.59 16.35 64.29 23.51L64.27 23.49L64.22 23.44Q63.91 30.79 66.88 36.95L66.84 36.91L66.78 36.85Q66.32 36.89 65.90 36.70L65.78 36.58L65.80 36.60Q61.29 32.69 56.07 27.14L56.05 27.11ZM69.42 40.06L69.59 40.24L69.50 40.14Q69.94 40.27 70.36 40.46L70.40 40.51L71.30 40.91L71.34 40.96Q66.14 33.97 66.14 24.61L66.11 24.57L66.07 24.53Q66.17 17.39 69.48 11.15L69.45 11.13L69.46 11.13Q68.78 11.33 67.37 11.94L67.35 11.92L67.27 11.84Q67.67 11.01 68.51 9.45L68.64 9.59L68.47 9.42Q66.16 10.46 63.72 11.03L63.56 10.87L63.59 10.89Q60.97 17.38 60.97 24.80L61.05 24.88L61.05 24.88Q60.91 26.60 61.10 28.58L61.15 28.64L61.22 28.70Q56.63 23.08 51.87 18.47L51.80 18.41L41.67 8.65L41.77 8.75Q41.09 8.34 39.87 7.77L39.96 7.86L39.87 7.77Q44.86 15.62 44.86 24.72L44.85 24.70L44.88 24.73Q44.73 31.70 41.65 37.72L41.67 37.75L41.69 37.76Q41.98 37.64 43.62 37.03L43.62 37.03L43.59 37.00Q43.38 37.89 42.54 39.37L42.59 39.43L42.55 39.39Q43.78 38.75 47.24 37.95L47.21 37.91L47.32 38.02Q49.55 31.81 49.55 24.61L49.72 24.77L49.70 24.76Q49.70 22.67 49.48 20.54L49.49 20.55L49.47 20.53Q60.89 33.29 69.50 40.14Z"/><path fill="#444" d="M82.15 14.67L82.22 14.73L82.24 14.75Q80.21 14.82 79.26 14.97L79.25 14.97L79.26 14.98Q77.51 15.09 76.29 15.62L76.43 15.76L76.37 15.70Q72.88 17.16 72.76 21.84L72.69 21.77L72.68 21.75Q72.69 24.51 73.34 27.44L73.41 27.51L73.30 27.41Q74.23 31.49 77.85 32.67L77.87 32.69L77.74 32.57Q79.70 33.20 81.15 33.04L81.22 33.12L81.58 33.01L81.56 33.00Q81.70 32.95 81.89 32.99L81.94 33.04L81.87 32.97Q82.17 33.11 82.32 33.07L82.26 33.02L82.25 33.00Q84.91 32.77 86.28 32.19L86.33 32.24L82.62 28.57L82.67 28.62Q82.97 28.28 83.58 27.67L83.57 27.66L84.47 26.73L84.62 26.88Q86.44 28.93 88.42 30.99L88.31 30.88L88.38 30.95Q90.76 29.18 91.03 23.81L90.96 23.74L90.97 23.76Q91.03 22.82 91.03 21.91L91.09 21.97L91.04 21.92Q91.02 16.23 85.96 15.12L85.99 15.15L85.87 15.04Q84.63 14.78 82.11 14.63ZM94.86 36.67L94.98 36.78L94.92 36.73Q94.27 37.10 93.09 37.98L93.11 38.00L88.74 34.36L88.84 34.45Q86.22 35.52 81.95 35.56L81.96 35.57L82.07 35.68Q75.53 35.80 72.71 33.55L72.61 33.45L72.65 33.49Q70.81 31.65 70.35 28.68L70.39 28.71L70.30 28.63Q70.16 26.89 69.78 23.31L69.83 23.36L69.77 23.30Q69.74 22.54 69.62 20.79L69.64 20.81L69.72 20.89Q69.54 19.30 69.58 18.43L69.59 18.44L69.67 18.51Q69.72 15.41 71.48 13.85L71.53 13.90L71.40 13.78Q72.98 12.50 76.18 12.01L76.08 11.91L76.15 11.98Q78.74 11.71 81.63 11.79L81.58 11.74L81.60 11.75Q89.03 11.80 92.15 14.16L92.25 14.26L92.23 14.24Q94.25 16.22 93.98 21.13L94.00 21.15L94.17 21.32Q93.86 24.85 93.67 26.19L93.73 26.24L93.71 26.22Q92.95 30.61 90.63 32.93L90.75 33.05L90.72 33.02Q92.16 34.23 94.90 36.71ZM90.09 12.48L90.06 12.45L89.98 12.37Q88.01 11.70 81.50 11.20L81.53 11.23L81.57 11.27Q80.16 11.27 77.39 11.39L77.36 11.36L77.47 11.47Q73.11 11.56 70.86 13.54L70.83 13.51L70.89 13.57Q69.20 15.00 69.20 18.16L69.24 18.20L69.19 18.16Q69.32 19.12 69.47 20.83L69.42 20.78L69.38 20.74Q69.61 22.53 69.61 23.41L69.50 23.30L69.54 23.34Q69.72 25.11 70.10 28.69L70.18 28.77L70.06 28.65Q70.39 31.50 71.99 33.55L72.02 33.59L72.05 33.61Q72.30 34.36 73.52 35.50L73.53 35.51L73.63 35.62Q76.33 37.58 81.50 37.85L81.59 37.94L81.48 37.82Q81.78 37.78 84.18 37.90L84.23 37.95L84.32 38.05Q89.11 38.19 91.40 37.12L91.26 36.98L91.26 36.99Q92.14 37.67 96.86 41.25L97.02 41.41L96.96 41.35Q97.55 40.80 98.84 39.81L98.90 39.86L98.84 39.81Q97.89 39.05 97.09 38.36L97.17 38.45L95.46 36.92L95.54 36.85L95.61 36.92Q95.11 36.54 93.90 35.51L93.71 35.33L93.73 35.34Q95.67 32.87 95.67 28.34L95.66 28.33L95.76 28.43Q95.72 27.97 95.76 27.13L95.68 27.06L95.84 27.22Q95.72 26.22 95.72 25.80L95.78 25.86L95.82 25.90Q95.85 20.41 95.13 18.05L95.01 17.94L95.08 18.00Q94.70 16.71 93.83 15.65L93.77 15.59L93.80 15.62Q93.07 13.55 90.14 12.52ZM84.15 17.13L84.05 17.02L83.98 16.96Q88.12 16.94 89.94 18.54L90.05 18.65L89.95 18.54Q90.45 19.69 90.56 21.02L90.65 21.11L90.67 21.13Q90.68 22.32 90.61 23.69L90.64 23.73L90.55 23.64Q90.27 28.65 88.33 30.37L88.28 30.32L88.42 30.46Q87.07 29.11 84.56 26.37L84.63 26.43L84.53 26.33Q83.79 27.12 82.23 28.68L82.26 28.71L82.26 28.71Q82.76 29.25 83.90 30.43L83.81 30.33L83.77 30.41L83.74 30.38Q84.38 30.98 85.40 32.04L85.48 32.12L85.52 32.16Q84.50 32.40 82.18 32.70L82.02 32.54L81.66 32.71L81.27 32.75L81.25 32.76L81.19 32.70Q77.80 32.77 75.82 31.14L75.68 31.00L75.80 31.12Q74.64 28.89 74.67 25.77L74.73 25.82L74.83 25.92Q74.98 17.20 84.16 17.13Z"/></svg>